<svg width="1079" height="264" viewBox="0 0 1079 264" fill="none" xmlns="http://www.w3.org/2000/svg">
<path fill-rule="evenodd" clip-rule="evenodd" d="M332.428 239.128C332.428 149.208 314.881 122.896 308.515 113.349L308.515 113.349C308.084 112.703 307.705 112.135 307.386 111.628C298.428 99.6282 284.928 93.1282 266.386 89.8689C265.171 89.7478 263.939 89.6228 262.691 89.4961L262.691 89.496C245.998 87.802 226.362 85.8093 205.428 88.8402C144.928 97.5994 113.158 218.398 149.928 191.099C215.928 142.099 256.904 226.628 259.404 239.128C261.404 249.128 267.5 257.186 271.5 259.186C276.849 261.861 278.79 261.954 282.187 262.118C282.6 262.138 283.035 262.159 283.5 262.186C293.313 262.751 294.941 262.689 307.283 262.214L308 262.186C323.6 260.986 332.428 251.13 332.428 239.128ZM260.999 135.028C268.091 135.028 273.841 129.08 273.841 121.743C273.841 114.406 268.091 108.458 260.999 108.458C253.906 108.458 248.156 114.406 248.156 121.743C248.156 129.08 253.906 135.028 260.999 135.028ZM260.999 184.073C268.091 184.073 273.841 178.125 273.841 170.787C273.841 163.45 268.091 157.502 260.999 157.502C253.906 157.502 248.156 163.45 248.156 170.787C248.156 178.125 253.906 184.073 260.999 184.073ZM249.685 145.899C249.685 153.236 243.935 159.184 236.842 159.184C229.75 159.184 224 153.236 224 145.899C224 138.562 229.75 132.614 236.842 132.614C243.935 132.614 249.685 138.562 249.685 145.899ZM285.155 159.184C292.248 159.184 297.997 153.236 297.997 145.899C297.997 138.562 292.248 132.614 285.155 132.614C278.062 132.614 272.313 138.562 272.313 145.899C272.313 153.236 278.062 159.184 285.155 159.184Z" fill="url(#paint0_linear_78_23)"/>
<mask id="mask0_78_23" style="mask-type:alpha" maskUnits="userSpaceOnUse" x="134" y="87" width="199" height="175">
<path d="M332.428 239.128C332.428 143.128 312.428 119.628 307.385 111.628C298.428 99.6282 284.928 93.1282 266.385 89.8689C248.928 88.1282 227.927 85.5826 205.427 88.8402C144.927 97.5994 113.157 218.398 149.927 191.099C215.927 142.099 256.5 224.186 259 236.686C261 246.686 264.408 259.37 275.5 260.686C287.5 262.11 291.9 262.386 307.5 261.186C323.1 259.986 332.428 251.13 332.428 239.128Z" fill="#D9D9D9"/>
</mask>
<g mask="url(#mask0_78_23)">
<g filter="url(#filter0_d_78_23)">
<path d="M315.503 113.958C216.003 89.9575 293.503 180.958 219.503 193.958C103.003 262.458 130 149.457 134.5 121.957C139 94.4567 181.5 79.4567 257 81.9567C317.4 83.9567 323.503 87.9575 315.503 113.958Z" fill="url(#paint1_linear_78_23)"/>
</g>
</g>
<path fill-rule="evenodd" clip-rule="evenodd" d="M20.9763 51.1269C2.92774 85.1281 -1.55261 112.822 0.435216 236.877C1.31869 244.838 8.25405 261.157 28.9277 262.749C49.5437 264.337 53.2157 263.418 55.8644 262.755L55.8866 262.749C61.6292 261.201 73.7772 254.788 76.4277 241.521C79.7407 224.936 116.428 66.6281 185.428 66.6281C197.653 66.6281 199.006 57.7314 200.584 47.35C202.307 36.0166 204.299 22.9138 221 17.6856C221 17.6856 125 15.6857 62.0584 20.6109C42.1339 22.17 30.3467 33.4744 20.9763 51.1269ZM64.4549 47.4574C57.4244 47.4574 51.7251 53.1567 51.7251 60.1872V79.8426H32.7299C25.6994 79.8426 20 85.5419 20 92.5725V92.8973C20 99.9278 25.6994 105.627 32.7299 105.627H51.7251V125.655C51.7251 132.686 57.4244 138.385 64.4549 138.385H66.5288C73.5593 138.385 79.2587 132.686 79.2587 125.655V105.627H98.1979C105.228 105.627 110.928 99.9278 110.928 92.8973V92.5725C110.928 85.5419 105.228 79.8426 98.1979 79.8426H79.2587V60.1872C79.2587 53.1567 73.5593 47.4574 66.5288 47.4574H64.4549Z" fill="url(#paint2_linear_78_23)"/>
<mask id="mask1_78_23" style="mask-type:alpha" maskUnits="userSpaceOnUse" x="0" y="17" width="221" height="247">
<path d="M0.435216 236.877C-1.55261 112.823 2.92774 85.1283 20.9763 51.1271C30.3467 33.4745 42.1379 22.221 62.0584 20.6111C123 15.6859 221 17.6859 221 17.6859C189 27.7031 211 66.6283 185.428 66.6283C116.428 66.6283 79.7407 224.936 76.4277 241.521C73.7772 254.789 61.6292 261.201 55.8866 262.749L55.8644 262.755C53.2157 263.418 49.5437 264.337 28.9277 262.749C8.25405 261.157 1.31869 244.838 0.435216 236.877Z" fill="white"/>
</mask>
<g mask="url(#mask1_78_23)">
<g filter="url(#filter1_d_78_23)">
<path d="M102.356 163.826C128.724 104.922 80.5 39.1859 -7.42344 32.0936C-69.5791 21.0856 167.715 -63.3664 194.503 -71.0427C221.29 -78.719 212.018 -72.3778 242.003 -3.04252C265.991 52.4257 129.282 159.956 102.356 163.826Z" fill="url(#paint3_linear_78_23)"/>
</g>
</g>
<path d="M240 37C240 25.9543 248.954 17 260 17H280C291.046 17 300 25.9543 300 37V37C300 48.0457 291.046 57 280 57H260C248.954 57 240 48.0457 240 37V37Z" fill="#686868" fill-opacity="0.16"/>
<path d="M240 37C240 25.9543 248.954 17 260 17H270C281.046 17 290 25.9543 290 37V37C290 48.0457 281.046 57 270 57H260C248.954 57 240 48.0457 240 37V37Z" fill="#5E5E5E" fill-opacity="0.4"/>
<path d="M240 35.5C240 24.7304 248.73 16 259.5 16V16C270.27 16 279 24.7304 279 35.5V37.5C279 48.2696 270.27 57 259.5 57V57C248.73 57 240 48.2696 240 37.5V35.5Z" fill="#747474"/>
<path d="M1040 36C1040 25.5066 1048.51 17 1059 17V17C1069.49 17 1078 25.5066 1078 36V38C1078 48.4934 1069.49 57 1059 57V57C1048.51 57 1040 48.4934 1040 38V36Z" fill="#C1C1C1"/>
<path d="M902.253 57C896.343 57 891.563 55.3159 887.913 51.9477C887.304 51.3432 887 50.6523 887 49.875C887 49.0114 887.348 48.3205 888.043 47.8023C888.738 47.2841 889.303 47.025 889.738 47.025C890.433 47.025 891.302 47.4568 892.345 48.3205C893.649 49.4432 895.126 50.3068 896.778 50.9114C898.516 51.5159 900.471 51.8182 902.644 51.8182C905.686 51.8182 907.946 51.2568 909.423 50.1341C910.988 49.0114 911.77 47.5 911.77 45.6C911.77 43.6136 910.944 42.1886 909.293 41.325C907.641 40.375 905.295 39.7273 902.253 39.3818C900.602 39.2091 898.603 38.9068 896.256 38.475C893.996 38.0432 891.997 37.1795 890.259 35.8841C888.521 34.5023 887.652 32.4295 887.652 29.6659C887.652 26.125 888.956 23.3182 891.563 21.2455C894.17 19.1727 897.82 18.1364 902.514 18.1364C905.208 18.1364 907.728 18.4818 910.075 19.1727C912.422 19.7773 914.116 20.5545 915.159 21.5045C915.855 22.0227 916.202 22.7136 916.202 23.5773C916.202 24.1818 915.941 24.8295 915.42 25.5205C914.899 26.125 914.29 26.4273 913.595 26.4273C913.247 26.4273 912.9 26.3409 912.552 26.1682C912.204 25.9955 911.857 25.8227 911.509 25.65C909.945 24.7864 908.511 24.1818 907.207 23.8364C905.99 23.4909 904.513 23.3182 902.774 23.3182C899.993 23.3182 897.734 23.8364 895.995 24.8727C894.344 25.8227 893.518 27.2909 893.518 29.2773C893.518 30.6591 894.083 31.6955 895.213 32.3864C896.43 32.9909 898.776 33.5091 902.253 33.9409C903.47 34.1136 904.947 34.3727 906.685 34.7182C908.424 35.0636 910.118 35.625 911.77 36.4023C913.421 37.0932 914.812 38.1727 915.941 39.6409C917.071 41.0227 917.636 42.8795 917.636 45.2114C917.636 48.7523 916.289 51.6023 913.595 53.7614C910.901 55.9205 907.12 57 902.253 57Z" fill="#C1C1C1"/>
<path d="M935.893 57C932.329 57 929.548 55.9636 927.549 53.8909C925.55 51.7318 924.551 48.7955 924.551 45.0818V25.9091C924.551 25.0455 924.116 24.6136 923.247 24.6136H919.988C919.293 24.6136 918.684 24.3545 918.163 23.8364C917.641 23.3182 917.381 22.7136 917.381 22.0227C917.381 21.3318 917.641 20.7273 918.163 20.2091C918.684 19.6909 919.293 19.4318 919.988 19.4318H923.247C924.116 19.4318 924.551 19 924.551 18.1364V6.08863C924.551 5.13863 924.855 4.44773 925.463 4.01591C926.072 3.49772 926.724 3.23863 927.419 3.23863C928.201 3.23863 928.896 3.49772 929.505 4.01591C930.113 4.44773 930.417 5.13863 930.417 6.08863V18.1364C930.417 19 930.852 19.4318 931.721 19.4318H940.847C941.542 19.4318 942.15 19.6909 942.672 20.2091C943.193 20.7273 943.454 21.3318 943.454 22.0227C943.454 22.7136 943.193 23.3182 942.672 23.8364C942.15 24.3545 941.542 24.6136 940.847 24.6136H931.721C930.852 24.6136 930.417 25.0455 930.417 25.9091V44.6932C930.417 49.1841 932.503 51.4295 936.675 51.4295C937.718 51.4295 938.544 51.3 939.152 51.0409C939.847 50.7818 940.412 50.6523 940.847 50.6523C941.629 50.6523 942.237 50.9545 942.672 51.5591C943.193 52.1636 943.454 52.8114 943.454 53.5023C943.454 54.8841 942.802 55.7477 941.499 56.0932C940.629 56.4386 939.673 56.6545 938.63 56.7409C937.674 56.9136 936.762 57 935.893 57Z" fill="#C1C1C1"/>
<path d="M974.542 21.1159C974.542 20.1659 974.847 19.4318 975.455 18.9136C976.063 18.3955 976.759 18.1364 977.541 18.1364C978.236 18.1364 978.888 18.3955 979.496 18.9136C980.105 19.4318 980.409 20.1659 980.409 21.1159V39.3818C980.409 44.7364 978.845 49.0114 975.716 52.2068C972.587 55.4023 968.328 57 962.94 57C958.942 57 955.683 56.1795 953.162 54.5386C950.642 52.8977 948.773 50.7386 947.556 48.0614C946.427 45.2977 945.862 42.3614 945.862 39.2523V21.1159C945.862 20.1659 946.166 19.4318 946.774 18.9136C947.383 18.3955 948.078 18.1364 948.86 18.1364C949.555 18.1364 950.207 18.3955 950.816 18.9136C951.424 19.4318 951.728 20.1659 951.728 21.1159V39.7705C951.728 44.0023 952.858 47.025 955.118 48.8386C957.377 50.6523 959.985 51.5591 962.94 51.5591C965.721 51.5591 968.328 50.6523 970.762 48.8386C973.282 47.025 974.542 44.0886 974.542 40.0295V21.1159Z" fill="#C1C1C1"/>
<path d="M1002.54 57C997.147 57 992.715 55.1864 989.238 51.5591C985.762 47.8455 984.024 43.0955 984.024 37.3091C984.024 31.6955 985.762 27.1182 989.238 23.5773C992.715 19.95 997.147 18.1364 1002.54 18.1364C1008.1 18.1364 1012.57 20.0795 1015.96 23.9659V2.85C1015.96 1.9 1016.27 1.20909 1016.88 0.77727C1017.48 0.25909 1018.14 0 1018.83 0C1019.61 0 1020.31 0.25909 1020.92 0.77727C1021.53 1.20909 1021.83 1.9 1021.83 2.85V53.3727C1021.83 54.2364 1021.53 54.9705 1020.92 55.575C1020.4 56.0932 1019.7 56.3523 1018.83 56.3523C1017.96 56.3523 1017.27 56.0932 1016.75 55.575C1016.22 54.9705 1015.96 54.2364 1015.96 53.3727V50.9114C1014.4 52.8114 1012.44 54.3227 1010.1 55.4455C1007.84 56.4818 1005.32 57 1002.54 57ZM1002.54 51.6886C1006.62 51.6886 1009.88 50.4795 1012.31 48.0614C1014.75 45.6432 1015.96 42.0591 1015.96 37.3091C1015.96 32.7318 1014.75 29.2773 1012.31 26.9455C1009.88 24.6136 1006.62 23.4477 1002.54 23.4477C998.799 23.4477 995.757 24.7864 993.41 27.4636C991.15 30.1409 990.02 33.4227 990.02 37.3091C990.02 41.3682 991.15 44.7795 993.41 47.5432C995.757 50.3068 998.799 51.6886 1002.54 51.6886Z" fill="#C1C1C1"/>
<path d="M1031.13 57C1030.26 57 1029.52 56.6977 1028.92 56.0932C1028.39 55.575 1028.13 54.8841 1028.13 54.0205V20.9864C1028.13 20.0364 1028.44 19.3455 1029.05 18.9136C1029.65 18.3955 1030.35 18.1364 1031.13 18.1364C1031.83 18.1364 1032.48 18.3955 1033.09 18.9136C1033.7 19.3455 1034 20.0364 1034 20.9864V54.0205C1034 54.8841 1033.74 55.575 1033.22 56.0932C1032.7 56.6977 1032 57 1031.13 57Z" fill="#C1C1C1"/>
<path d="M397.326 262.405C392.369 262.405 387.793 260.88 383.599 257.83C379.785 254.779 377.879 250.394 377.879 244.675V110.264C377.879 103.782 379.785 99.0154 383.599 95.965C387.793 92.5332 392.369 90.8173 397.326 90.8173C401.139 90.8173 404.761 91.7706 408.193 93.6771C411.625 95.2023 414.103 98.0621 415.628 102.257C416.391 104.544 416.772 106.642 416.772 108.548C422.492 102.447 429.927 97.4902 439.079 93.6771C448.23 89.8641 457.191 87.9575 465.961 87.9575C490.746 87.9575 509.048 97.8715 520.869 117.699C525.445 109.692 532.88 102.828 543.175 97.1089C553.852 91.008 566.816 87.9575 582.069 87.9575C602.659 87.9575 619.055 94.821 631.257 108.548C643.459 122.275 649.56 142.484 649.56 169.176V244.675C649.56 250.394 647.463 254.779 643.268 257.83C639.074 260.88 634.689 262.405 630.113 262.405C625.156 262.405 620.581 260.88 616.386 257.83C612.573 254.779 610.667 250.394 610.667 244.675V172.608C610.667 139.815 598.465 123.419 574.061 123.419C560.334 123.419 550.42 127.041 544.319 134.286C538.218 141.531 534.405 150.111 532.88 160.024V244.675C532.88 250.394 530.783 254.779 526.589 257.83C522.394 260.88 518.009 262.405 513.433 262.405C508.476 262.405 503.901 260.88 499.706 257.83C495.893 254.779 493.987 250.394 493.987 244.675V172.608C493.987 155.83 490.746 143.438 484.263 135.43C477.781 127.423 469.011 123.419 457.953 123.419C441.557 123.419 430.499 128.567 424.78 138.862C419.441 148.776 416.772 159.834 416.772 172.036V244.675C416.772 250.394 414.675 254.779 410.481 257.83C406.668 260.88 402.283 262.405 397.326 262.405Z" fill="#666666"/>
<path d="M692.345 262.405C687.388 262.405 682.813 260.88 678.618 257.83C674.805 254.779 672.899 250.394 672.899 244.675V107.404C672.899 100.922 674.805 96.1556 678.618 93.1052C682.813 89.6734 687.388 87.9575 692.345 87.9575C697.302 87.9575 701.687 89.6734 705.5 93.1052C709.695 96.1556 711.792 100.922 711.792 107.404V244.675C711.792 250.394 709.695 254.779 705.5 257.83C701.687 260.88 697.302 262.405 692.345 262.405Z" fill="#666666"/>
<path d="M777.219 172.036V244.675C777.219 250.394 775.122 254.779 770.927 257.83C767.114 260.88 762.729 262.405 757.772 262.405C752.815 262.405 748.239 260.88 744.045 257.83C740.232 254.779 738.325 250.394 738.325 244.675V110.264C738.325 103.782 740.232 99.0154 744.045 95.965C748.239 92.5332 752.815 90.8173 757.772 90.8173C762.729 90.8173 767.114 92.5332 770.927 95.965C775.122 99.0154 777.219 103.782 777.219 110.264V112.552C782.557 105.307 789.421 99.3967 797.809 94.821C806.579 90.2454 815.731 87.9575 825.263 87.9575C829.839 87.9575 834.415 88.5295 838.99 89.6734C843.566 90.8173 846.998 93.1052 849.286 96.5369C851.574 99.9687 852.717 103.782 852.717 107.976C852.717 112.933 851.002 117.509 847.57 121.703C844.519 125.516 839.944 127.423 833.843 127.423C831.174 127.423 828.314 127.041 825.263 126.279C822.594 125.516 819.162 125.135 814.968 125.135C803.91 125.135 794.759 129.329 787.514 137.718C780.65 146.107 777.219 157.546 777.219 172.036Z" fill="#666666"/>
<path d="M926.701 262.405C910.305 262.405 895.625 258.592 882.66 250.966C869.696 243.34 859.591 232.854 852.347 219.508C845.102 205.781 841.479 190.529 841.479 173.752C841.479 157.355 845.102 142.675 852.347 129.711C859.591 116.746 869.696 106.642 882.66 99.3967C895.625 91.7706 910.305 87.9575 926.701 87.9575C937.378 87.9575 946.911 89.8641 955.299 93.6771C963.688 97.1089 970.933 101.685 977.034 107.404C977.796 102.066 980.084 98.0622 983.897 95.393C987.71 92.3425 991.905 90.8173 996.48 90.8173C1001.44 90.8173 1005.82 92.5332 1009.64 95.965C1013.83 99.0154 1015.93 103.782 1015.93 110.264V244.675C1015.93 250.394 1013.83 254.779 1009.64 257.83C1005.82 260.88 1001.44 262.405 996.48 262.405C991.523 262.405 986.948 260.88 982.753 257.83C978.94 254.779 977.034 250.394 977.034 244.675V242.387C970.933 248.488 963.688 253.254 955.299 256.686C946.911 260.499 937.378 262.405 926.701 262.405ZM930.133 226.944C944.623 226.944 956.062 222.177 964.451 212.645C972.839 202.731 977.034 189.766 977.034 173.752C977.034 158.499 972.839 146.297 964.451 137.146C956.062 127.995 944.623 123.419 930.133 123.419C915.262 123.419 903.251 127.995 894.1 137.146C884.948 146.297 880.373 158.499 880.373 173.752C880.373 189.766 884.948 202.731 894.1 212.645C903.251 222.177 915.262 226.944 930.133 226.944Z" fill="#666666"/>
<path d="M1059.03 262.405C1054.07 262.405 1049.49 260.88 1045.3 257.83C1041.49 254.779 1039.58 250.394 1039.58 244.675V107.404C1039.58 100.922 1041.49 96.1556 1045.3 93.1052C1049.49 89.6734 1054.07 87.9575 1059.03 87.9575C1063.98 87.9575 1068.37 89.6734 1072.18 93.1052C1076.37 96.1556 1078.47 100.922 1078.47 107.404V244.675C1078.47 250.394 1076.37 254.779 1072.18 257.83C1068.37 260.88 1063.98 262.405 1059.03 262.405Z" fill="#666666"/>
<defs>
<filter id="filter0_d_78_23" x="126.624" y="81.687" width="193.684" height="139.985" filterUnits="userSpaceOnUse" color-interpolation-filters="sRGB">
<feFlood flood-opacity="0" result="BackgroundImageFix"/>
<feColorMatrix in="SourceAlpha" type="matrix" values="0 0 0 0 0 0 0 0 0 0 0 0 0 0 0 0 0 0 127 0" result="hardAlpha"/>
<feOffset dy="4"/>
<feGaussianBlur stdDeviation="1"/>
<feComposite in2="hardAlpha" operator="out"/>
<feColorMatrix type="matrix" values="0 0 0 0 0 0 0 0 0 0 0 0 0 0 0 0 0 0 0.25 0"/>
<feBlend mode="normal" in2="BackgroundImageFix" result="effect1_dropShadow_78_23"/>
<feBlend mode="normal" in="SourceGraphic" in2="effect1_dropShadow_78_23" result="shape"/>
</filter>
<filter id="filter1_d_78_23" x="-23.7617" y="-73.575" width="274.575" height="250.401" filterUnits="userSpaceOnUse" color-interpolation-filters="sRGB">
<feFlood flood-opacity="0" result="BackgroundImageFix"/>
<feColorMatrix in="SourceAlpha" type="matrix" values="0 0 0 0 0 0 0 0 0 0 0 0 0 0 0 0 0 0 127 0" result="hardAlpha"/>
<feOffset dy="7"/>
<feGaussianBlur stdDeviation="3"/>
<feComposite in2="hardAlpha" operator="out"/>
<feColorMatrix type="matrix" values="0 0 0 0 0 0 0 0 0 0 0 0 0 0 0 0 0 0 0.25 0"/>
<feBlend mode="normal" in2="BackgroundImageFix" result="effect1_dropShadow_78_23"/>
<feBlend mode="normal" in="SourceGraphic" in2="effect1_dropShadow_78_23" result="shape"/>
</filter>
<linearGradient id="paint0_linear_78_23" x1="233.343" y1="87.269" x2="343.319" y2="252.828" gradientUnits="userSpaceOnUse">
<stop offset="0.199517" stop-color="#8C1900"/>
<stop offset="1" stop-color="#FF2E00"/>
</linearGradient>
<linearGradient id="paint1_linear_78_23" x1="41.4995" y1="17.6858" x2="238.5" y2="196.186" gradientUnits="userSpaceOnUse">
<stop offset="0.352083" stop-color="#F2BD01"/>
<stop offset="1" stop-color="#DA0000"/>
</linearGradient>
<linearGradient id="paint2_linear_78_23" x1="110.5" y1="17.2839" x2="21.0656" y2="261.85" gradientUnits="userSpaceOnUse">
<stop stop-color="#550F00"/>
<stop offset="1" stop-color="#FF2E00"/>
</linearGradient>
<linearGradient id="paint3_linear_78_23" x1="252" y1="181.186" x2="87.5029" y2="-46.0425" gradientUnits="userSpaceOnUse">
<stop stop-color="#A40000"/>
<stop offset="1" stop-color="#FFA800"/>
</linearGradient>
</defs>
</svg>
